<?xml version="1.0" encoding="UTF-8" standalone="no"?>
<!DOCTYPE svg PUBLIC "-//W3C//DTD SVG 1.1//EN"
 "http://www.w3.org/Graphics/SVG/1.1/DTD/svg11.dtd">
<!-- Generated by graphviz version 12.1.2 (20240928.0832)
 -->
<!-- Title: DiskGraph Pages: 1 -->
<svg width="267pt" height="268pt"
 viewBox="0.00 0.00 267.00 268.00" xmlns="http://www.w3.org/2000/svg" xmlns:xlink="http://www.w3.org/1999/xlink">
<g id="graph0" class="graph" transform="scale(1 1) rotate(0) translate(4 264)">
<title>DiskGraph</title>
<polygon fill="white" stroke="none" points="-4,4 -4,-264 263,-264 263,4 -4,4"/>
<g id="clust1" class="cluster">
<title>cluster_graph</title>
<polygon fill="none" stroke="white" points="8,-8 8,-252 251,-252 251,-8 8,-8"/>
</g>
<!-- &#45;5187793428255475501 -->
<g id="node1" class="node">
<title>&#45;5187793428255475501</title>
<polygon fill="lightgrey" stroke="black" points="119.25,-244 62.75,-244 62.75,-203 119.25,-203 119.25,-244"/>
<text text-anchor="middle" x="91" y="-226.7" font-family="Times,serif" font-size="14.00">/\ x = 1</text>
<text text-anchor="middle" x="91" y="-210.2" font-family="Times,serif" font-size="14.00">/\ y = 1</text>
</g>
<!-- &#45;5187793428255475501&#45;&gt;&#45;5187793428255475501 -->
<g id="edge3" class="edge">
<title>&#45;5187793428255475501&#45;&gt;&#45;5187793428255475501</title>
<path fill="none" stroke="black" d="M119.49,-232.09C132.7,-233.03 144.25,-230.17 144.25,-223.5 144.25,-218.87 138.67,-216.07 130.82,-215.11"/>
<polygon fill="black" stroke="black" points="131.06,-211.61 121,-214.93 130.94,-218.61 131.06,-211.61"/>
<text text-anchor="middle" x="157.38" y="-218.45" font-family="Times,serif" font-size="14.00">Next</text>
</g>
<!-- &#45;2105748106114979235 -->
<g id="node2" class="node">
<title>&#45;2105748106114979235</title>
<g id="a_node2"><a xlink:title="/\ x = 2&#10;/\ y = 1">
<path fill="none" stroke="black" d="M60.25,-150.5C60.25,-150.5 27.75,-150.5 27.75,-150.5 21.75,-150.5 15.75,-144.5 15.75,-138.5 15.75,-138.5 15.75,-121.5 15.75,-121.5 15.75,-115.5 21.75,-109.5 27.75,-109.5 27.75,-109.5 60.25,-109.5 60.25,-109.5 66.25,-109.5 72.25,-115.5 72.25,-121.5 72.25,-121.5 72.25,-138.5 72.25,-138.5 72.25,-144.5 66.25,-150.5 60.25,-150.5"/>
<text text-anchor="middle" x="44" y="-133.2" font-family="Times,serif" font-size="14.00">/\ x = 2</text>
<text text-anchor="middle" x="44" y="-116.7" font-family="Times,serif" font-size="14.00">/\ y = 1</text>
</a>
</g>
</g>
<!-- &#45;5187793428255475501&#45;&gt;&#45;2105748106114979235 -->
<g id="edge1" class="edge">
<title>&#45;5187793428255475501&#45;&gt;&#45;2105748106114979235</title>
<path fill="none" stroke="black" d="M76.57,-202.74C72.8,-197.15 68.91,-190.96 65.75,-185 61.82,-177.6 58.16,-169.32 55,-161.52"/>
<polygon fill="black" stroke="black" points="58.32,-160.41 51.44,-152.35 51.79,-162.94 58.32,-160.41"/>
<text text-anchor="middle" x="98.38" y="-171.7" font-family="Times,serif" font-size="14.00">IncrementX</text>
</g>
<!-- 6472362970614741678 -->
<g id="node3" class="node">
<title>6472362970614741678</title>
<g id="a_node3"><a xlink:title="/\ x = 1&#10;/\ y = 2">
<path fill="none" stroke="black" d="M186.25,-150.5C186.25,-150.5 153.75,-150.5 153.75,-150.5 147.75,-150.5 141.75,-144.5 141.75,-138.5 141.75,-138.5 141.75,-121.5 141.75,-121.5 141.75,-115.5 147.75,-109.5 153.75,-109.5 153.75,-109.5 186.25,-109.5 186.25,-109.5 192.25,-109.5 198.25,-115.5 198.25,-121.5 198.25,-121.5 198.25,-138.5 198.25,-138.5 198.25,-144.5 192.25,-150.5 186.25,-150.5"/>
<text text-anchor="middle" x="170" y="-133.2" font-family="Times,serif" font-size="14.00">/\ x = 1</text>
<text text-anchor="middle" x="170" y="-116.7" font-family="Times,serif" font-size="14.00">/\ y = 2</text>
</a>
</g>
</g>
<!-- &#45;5187793428255475501&#45;&gt;6472362970614741678 -->
<g id="edge2" class="edge">
<title>&#45;5187793428255475501&#45;&gt;6472362970614741678</title>
<path fill="none" stroke="black" d="M115.06,-202.81C121.19,-197.32 127.58,-191.17 133,-185 139.69,-177.39 146.2,-168.54 151.86,-160.23"/>
<polygon fill="black" stroke="black" points="154.64,-162.36 157.22,-152.09 148.8,-158.51 154.64,-162.36"/>
<text text-anchor="middle" x="177.92" y="-171.7" font-family="Times,serif" font-size="14.00">IncrementY</text>
</g>
<!-- &#45;2105748106114979235&#45;&gt;&#45;2105748106114979235 -->
<g id="edge5" class="edge">
<title>&#45;2105748106114979235&#45;&gt;&#45;2105748106114979235</title>
<path fill="none" stroke="black" d="M72.49,-138.59C85.7,-139.53 97.25,-136.67 97.25,-130 97.25,-125.37 91.67,-122.57 83.82,-121.61"/>
<polygon fill="black" stroke="black" points="84.06,-118.11 74,-121.43 83.94,-125.11 84.06,-118.11"/>
<text text-anchor="middle" x="110.38" y="-124.95" font-family="Times,serif" font-size="14.00">Next</text>
</g>
<!-- 222316619161626656 -->
<g id="node4" class="node">
<title>222316619161626656</title>
<g id="a_node4"><a xlink:title="/\ x = 2&#10;/\ y = 2">
<path fill="none" stroke="black" d="M115.25,-57C115.25,-57 82.75,-57 82.75,-57 76.75,-57 70.75,-51 70.75,-45 70.75,-45 70.75,-28 70.75,-28 70.75,-22 76.75,-16 82.75,-16 82.75,-16 115.25,-16 115.25,-16 121.25,-16 127.25,-22 127.25,-28 127.25,-28 127.25,-45 127.25,-45 127.25,-51 121.25,-57 115.25,-57"/>
<text text-anchor="middle" x="99" y="-39.7" font-family="Times,serif" font-size="14.00">/\ x = 2</text>
<text text-anchor="middle" x="99" y="-23.2" font-family="Times,serif" font-size="14.00">/\ y = 2</text>
</a>
</g>
</g>
<!-- &#45;2105748106114979235&#45;&gt;222316619161626656 -->
<g id="edge4" class="edge">
<title>&#45;2105748106114979235&#45;&gt;222316619161626656</title>
<path fill="none" stroke="black" d="M50.12,-109.23C53.85,-98.66 59.16,-85.66 65.75,-75 67.67,-71.89 69.86,-68.8 72.17,-65.79"/>
<polygon fill="black" stroke="black" points="74.7,-68.22 78.38,-58.29 69.31,-63.76 74.7,-68.22"/>
<text text-anchor="middle" x="98.38" y="-78.2" font-family="Times,serif" font-size="14.00">IncrementY</text>
</g>
<!-- 6472362970614741678&#45;&gt;6472362970614741678 -->
<g id="edge7" class="edge">
<title>6472362970614741678&#45;&gt;6472362970614741678</title>
<path fill="none" stroke="black" d="M198.49,-138.59C211.7,-139.53 223.25,-136.67 223.25,-130 223.25,-125.37 217.67,-122.57 209.82,-121.61"/>
<polygon fill="black" stroke="black" points="210.06,-118.11 200,-121.43 209.94,-125.11 210.06,-118.11"/>
<text text-anchor="middle" x="236.38" y="-124.95" font-family="Times,serif" font-size="14.00">Next</text>
</g>
<!-- 6472362970614741678&#45;&gt;222316619161626656 -->
<g id="edge6" class="edge">
<title>6472362970614741678&#45;&gt;222316619161626656</title>
<path fill="none" stroke="black" d="M157.26,-109.05C150.4,-98.65 141.59,-85.88 133,-75 130.58,-71.94 127.99,-68.82 125.34,-65.74"/>
<polygon fill="black" stroke="black" points="128.12,-63.6 118.87,-58.44 122.88,-68.24 128.12,-63.6"/>
<text text-anchor="middle" x="177.45" y="-78.2" font-family="Times,serif" font-size="14.00">IncrementX</text>
</g>
<!-- 222316619161626656&#45;&gt;222316619161626656 -->
<g id="edge8" class="edge">
<title>222316619161626656&#45;&gt;222316619161626656</title>
<path fill="none" stroke="black" d="M127.49,-45.09C140.7,-46.03 152.25,-43.17 152.25,-36.5 152.25,-31.87 146.67,-29.07 138.82,-28.11"/>
<polygon fill="black" stroke="black" points="139.06,-24.61 129,-27.93 138.94,-31.61 139.06,-24.61"/>
<text text-anchor="middle" x="165.38" y="-31.45" font-family="Times,serif" font-size="14.00">Next</text>
</g>
</g>
</svg>
